<?xml version="1.0" encoding="UTF-8" standalone="no"?>
<!-- Uploaded to: SVG Repo, www.svgrepo.com, Generator: SVG Repo Mixer Tools -->

<svg
   width="800px"
   height="800px"
   viewBox="0 0 32 32"
   version="1.1"
   id="svg2"
   sodipodi:docname="email-mail-web-svgrepo-com.svg"
   inkscape:version="1.3 (0e150ed6c4, 2023-07-21)"
   xmlns:inkscape="http://www.inkscape.org/namespaces/inkscape"
   xmlns:sodipodi="http://sodipodi.sourceforge.net/DTD/sodipodi-0.dtd"
   xmlns="http://www.w3.org/2000/svg"
   xmlns:svg="http://www.w3.org/2000/svg">
  <sodipodi:namedview
     id="namedview2"
     pagecolor="#505050"
     bordercolor="#eeeeee"
     borderopacity="1"
     inkscape:showpageshadow="0"
     inkscape:pageopacity="0"
     inkscape:pagecheckerboard="0"
     inkscape:deskcolor="#505050"
     inkscape:zoom="0.73450717"
     inkscape:cx="356.70176"
     inkscape:cy="434.98554"
     inkscape:window-width="1920"
     inkscape:window-height="1009"
     inkscape:window-x="-8"
     inkscape:window-y="-8"
     inkscape:window-maximized="1"
     inkscape:current-layer="svg2" />
  <defs
     id="defs1">
    <style
       id="style1">.cls-1{fill:#75cede;}.cls-2{fill:#00a6bc;}</style>
  </defs>
  <title
     id="title1" />
  <g
     data-name="Layer 6"
     id="Layer_6"
     style="fill:#ffffff;fill-opacity:1">
    <path
       class="cls-1"
       d="M3.64,6,16,14.77,28.36,6a1,1,0,0,1,1.08,0A4.08,4.08,0,0,0,26.92,5H5.08a4.08,4.08,0,0,0-2.52.9A1,1,0,0,1,3.64,6Z"
       id="path1"
       style="fill:#ffffff;fill-opacity:1" />
    <path
       class="cls-2"
       d="M29.56,6a.86.86,0,0,1,.19.19,1,1,0,0,1-.23,1.39L16.58,16.81a1,1,0,0,1-1.16,0L2.48,7.57a1,1,0,0,1-.23-1.39A.86.86,0,0,1,2.44,6,4.08,4.08,0,0,0,1,9.08V22.92A4.08,4.08,0,0,0,5.08,27H26.92A4.08,4.08,0,0,0,31,22.92V9.08A4.08,4.08,0,0,0,29.56,6ZM13.78,18.81,3.64,26.05a1,1,0,0,1-.58.19,1,1,0,0,1-.81-.42,1,1,0,0,1,.23-1.39l10.14-7.24a1,1,0,0,1,1.16,1.62Zm16,7a1,1,0,0,1-.81.42,1,1,0,0,1-.58-.19L18.22,18.81a1,1,0,1,1,1.16-1.62l10.14,7.24A1,1,0,0,1,29.75,25.82Z"
       id="path2"
       style="fill:#ffffff;fill-opacity:1" />
  </g>
</svg>
